<svg width="102" height="80" fill="none" xmlns="http://www.w3.org/2000/svg"><g filter="url(#filter0_d)"><path d="M105.773 4.805L23.425 20.812a8.46 8.46 0 00-6.69 9.918l7.6 39.098a8.46 8.46 0 009.918 6.69l82.349-16.007a8.46 8.46 0 006.69-9.918l-7.6-39.098a8.46 8.46 0 00-9.919-6.69z" fill="#000"/></g><path d="M105.598 5.07L23.691 20.991A8.46 8.46 0 0017 30.91l7.514 38.656a8.46 8.46 0 009.918 6.69l81.907-15.92a8.46 8.46 0 006.69-9.919l-7.514-38.657a8.46 8.46 0 00-9.918-6.69z" fill="#fff"/><path fill-rule="evenodd" clip-rule="evenodd" d="M23.754 21.315a8.13 8.13 0 00-6.428 9.531l7.514 38.657a8.13 8.13 0 009.53 6.428l81.908-15.92a8.129 8.129 0 006.428-9.532l-7.514-38.656a8.128 8.128 0 00-9.531-6.429L23.754 21.315zm-7.077 9.657a8.79 8.79 0 016.951-10.305l81.907-15.922a8.79 8.79 0 0110.306 6.952l7.514 38.656a8.79 8.79 0 01-6.951 10.306L34.497 76.58A8.79 8.79 0 0124.19 69.63l-7.514-38.657z" fill="#D5D7DA"/><path d="M24.738 32.053c-.508.1-.92.045-1.232-.164-.311-.212-.515-.571-.614-1.076l-.427-2.2.659-.128.434 2.236c.062.318.184.546.365.683.18.134.417.172.711.115.288-.056.49-.181.606-.376.12-.196.15-.451.088-.766l-.435-2.236.66-.128.427 2.2c.097.501.04.91-.172 1.223-.211.314-.568.52-1.07.617zM27.97 28.587c.225-.043.435-.023.631.06.199.08.367.217.505.409.14.188.237.417.29.687.052.27.05.516-.008.739a1.117 1.117 0 01-.318.552 1.113 1.113 0 01-.57.283c-.19.037-.367.03-.531-.02a.875.875 0 01-.41-.277l.3 1.542-.643.125-.583-3a6.04 6.04 0 00-.186-.734l.607-.118.14.442a.795.795 0 01.264-.445c.137-.123.308-.205.512-.245zm.255 2.256c.218-.043.372-.148.461-.316.09-.168.108-.387.056-.657-.053-.274-.154-.475-.3-.604a.599.599 0 00-.544-.137c-.222.043-.377.15-.466.322-.088.172-.106.396-.052.673.053.273.153.473.3.598.145.123.327.163.545.12zM31.98 26.634l.742 3.82-.638.123-.082-.42a.875.875 0 01-.276.409 1.081 1.081 0 01-.485.218 1.104 1.104 0 01-.635-.054 1.183 1.183 0 01-.51-.402 1.742 1.742 0 01-.285-.693c-.052-.27-.05-.516.007-.74a1.117 1.117 0 01.892-.84 1.04 1.04 0 01.522.022.817.817 0 01.406.26l-.307-1.577.649-.126zm-.667 3.608c.215-.041.366-.148.455-.32.092-.172.112-.395.059-.668-.054-.273-.153-.473-.3-.599-.146-.126-.327-.168-.541-.126-.218.042-.373.15-.466.322-.089.168-.107.387-.055.657.053.273.153.475.3.604.151.129.334.172.548.13zM35.425 27.208l.51 2.62-.638.125-.082-.42a.875.875 0 01-.276.408 1.081 1.081 0 01-.485.219 1.139 1.139 0 01-.64-.048 1.117 1.117 0 01-.502-.393 1.67 1.67 0 01-.283-.683c-.052-.27-.05-.518.006-.744.06-.23.166-.42.32-.568a1.08 1.08 0 01.568-.294c.19-.037.368-.028.533.026.164.05.3.14.408.27l-.077-.394.639-.124zm-.894 2.409c.215-.042.366-.149.455-.32.089-.172.107-.393.054-.662-.053-.277-.154-.478-.3-.604-.147-.126-.329-.168-.547-.126a.614.614 0 00-.458.332c-.088.175-.105.399-.052.672.052.27.151.466.297.589.15.121.333.161.551.119zM37.052 27.398l.228 1.173c.06.308.233.434.52.378a.94.94 0 00.252-.092l.1.514c-.107.064-.241.111-.404.143-.297.058-.542.019-.733-.116-.191-.135-.317-.358-.378-.67l-.234-1.204-.503.098-.095-.488.503-.098-.124-.638.607-.344.166.857.695-.136.095.488-.695.135zM40.653 27.587l-1.806.35c.068.278.178.472.329.583.153.107.355.136.604.087.287-.055.535-.2.744-.435l.274.41a1.525 1.525 0 01-.415.333 1.79 1.79 0 01-.533.196c-.428.083-.79.027-1.082-.167-.293-.194-.48-.503-.562-.925a1.554 1.554 0 01.023-.742c.066-.228.186-.418.357-.57.171-.155.38-.257.625-.305.36-.07.666-.007.92.188.256.19.423.49.503.898l.019.099zm-1.336-.72a.608.608 0 00-.395.238c-.088.12-.128.281-.122.481l1.22-.237c-.06-.193-.149-.33-.269-.41-.116-.082-.26-.106-.434-.073zM43.846 25.501c.225-.043.435-.023.631.06.199.08.367.217.505.409.14.188.237.417.29.687.052.27.05.516-.008.739a1.116 1.116 0 01-.318.552 1.113 1.113 0 01-.57.283c-.19.037-.367.03-.531-.02a.875.875 0 01-.41-.277l.3 1.541-.643.126-.583-3a6.06 6.06 0 00-.186-.734l.607-.118.14.442a.796.796 0 01.264-.445c.137-.123.308-.205.512-.245zm.255 2.255c.218-.042.372-.147.461-.315.09-.168.108-.387.056-.657-.053-.273-.154-.475-.3-.604a.599.599 0 00-.544-.137c-.222.043-.377.15-.465.322-.09.172-.107.396-.053.673.053.273.153.473.3.598.146.123.327.163.545.12zM46.982 24.897c.1-.02.19-.022.267-.009l.11.593a.921.921 0 00-.355-.001c-.222.043-.379.14-.472.29-.089.151-.113.332-.072.543l.275 1.416-.643.125-.365-1.878a6.06 6.06 0 00-.186-.734l.607-.118.142.452a.794.794 0 01.236-.45.899.899 0 01.456-.229zM49.27 27.28a1.485 1.485 0 01-.738-.03 1.18 1.18 0 01-.56-.38 1.591 1.591 0 01-.301-.696 1.558 1.558 0 01.02-.752c.07-.23.195-.419.375-.569.182-.15.407-.251.673-.303.263-.05.506-.04.728.031.222.072.407.201.554.388.15.182.253.412.307.689.053.276.045.53-.025.758-.068.225-.191.413-.37.563-.18.15-.4.25-.663.3zm-.104-.508c.221-.043.375-.146.462-.31.089-.169.106-.395.05-.678-.053-.28-.154-.482-.3-.604-.146-.126-.327-.168-.541-.126-.218.042-.371.149-.46.32-.09.169-.107.393-.052.673.055.284.153.487.296.61.145.12.327.157.545.115zM51.445 24.094l1.722-.335.51 2.62-.649.127-.414-2.133-1.075.21.415 2.132-.649.126-.414-2.133-.503.098-.095-.488.503-.098-.051-.264c-.046-.235-.046-.428 0-.577a.65.65 0 01.295-.37c.154-.094.373-.169.656-.224l.192-.037.093.477-.124.025a1.15 1.15 0 00-.35.11.238.238 0 00-.127.181 1.1 1.1 0 00.027.361l.038.192zm1.528-1.557l.127.654-.732.142-.127-.654.732-.142zM53.635 22.425l.643-.125.743 3.819-.644.125-.742-3.82zM57.776 24.259l-1.806.35c.068.278.178.472.328.583.154.106.355.136.604.087.287-.056.536-.2.745-.436l.273.41a1.525 1.525 0 01-.414.334 1.792 1.792 0 01-.533.195c-.429.084-.79.028-1.082-.166-.293-.195-.48-.503-.562-.925a1.554 1.554 0 01.022-.742c.067-.229.186-.419.358-.57.17-.156.379-.257.625-.305.36-.07.666-.007.92.187.255.191.423.49.502.899l.02.099zm-1.336-.721a.608.608 0 00-.395.238c-.088.122-.129.282-.122.482l1.22-.237c-.06-.193-.15-.33-.269-.411-.116-.082-.261-.106-.434-.072zM57.745 21.75l.805-.151.3 2.623-.394.077-.711-2.55zm1.346 2.824l.14.726-.726.141-.14-.726.726-.141z" fill="#101928"/><path d="M29.856 46.493a4.23 4.23 0 10-1.614-8.304 4.23 4.23 0 001.614 8.304z" fill="#037AFF"/><path fill-rule="evenodd" clip-rule="evenodd" d="M28.909 43.19l-.831-.492a.227.227 0 00-.32.091.255.255 0 00.094.336l1.047.62c.118.07.266.024.325-.102l1.037-2.212a.255.255 0 00-.109-.331.228.228 0 00-.315.108l-.928 1.982z" fill="#fff"/><path d="M69.367 32.71l-31.486 6.12a1.586 1.586 0 10.605 3.114l31.487-6.12a1.586 1.586 0 00-.606-3.114z" fill="#E8E8EE"/><path d="M32.212 58.602a4.23 4.23 0 10-1.615-8.303 4.23 4.23 0 001.614 8.303z" fill="#037AFF"/><path fill-rule="evenodd" clip-rule="evenodd" d="M31.26 55.299l-.83-.492a.227.227 0 00-.32.092.255.255 0 00.093.336l1.048.62c.118.07.266.023.325-.102l1.037-2.213a.255.255 0 00-.11-.33.228.228 0 00-.314.107l-.929 1.982z" fill="#fff"/><path d="M59.959 47.106L40.237 50.94a1.586 1.586 0 00.605 3.114l19.722-3.834a1.586 1.586 0 00-.605-3.114z" fill="#E8E8EE"/><path d="M34.518 70.493a4.005 4.005 0 10-1.528-7.863 4.005 4.005 0 001.528 7.863z" fill="#fff"/><path fill-rule="evenodd" clip-rule="evenodd" d="M33.03 62.825a3.807 3.807 0 101.452 7.474 3.807 3.807 0 00-1.452-7.474zm-3.4 4.54a4.203 4.203 0 118.252-1.605 4.203 4.203 0 01-8.252 1.604z" fill="#D5D7DA"/><path d="M33.616 67.412l-.83-.492a.227.227 0 00-.32.092.255.255 0 00.093.336l1.047.62c.118.07.266.023.325-.102l1.037-2.212a.255.255 0 00-.109-.332.228.228 0 00-.314.108l-.93 1.982z" fill="#878C93"/><path d="M84.109 54.978l-41.52 8.07a1.586 1.586 0 00.605 3.115l41.52-8.07a1.586 1.586 0 10-.605-3.115z" fill="#E8E8EE"/><defs><filter id="filter0_d" x=".578" y="-4.352" width="138.87" height="104.027" filterUnits="userSpaceOnUse" color-interpolation-filters="sRGB"><feFlood flood-opacity="0" result="BackgroundImageFix"/><feColorMatrix in="SourceAlpha" values="0 0 0 0 0 0 0 0 0 0 0 0 0 0 0 0 0 0 127 0"/><feOffset dy="7"/><feGaussianBlur stdDeviation="8"/><feColorMatrix values="0 0 0 0 0.0627451 0 0 0 0 0.0980392 0 0 0 0 0.156863 0 0 0 0.16 0"/><feBlend in2="BackgroundImageFix" result="effect1_dropShadow"/><feBlend in="SourceGraphic" in2="effect1_dropShadow" result="shape"/></filter></defs></svg>